# Blender 4.0.2
# www.blender.org
mtllib rockParticle.mtl
o Cube.006
v -0.239048 -0.477541 0.451207
v -0.302016 0.414502 0.468634
v -0.346740 -0.563443 -0.273987
v -0.341158 0.360962 -0.409692
v 0.591701 -0.465910 0.454623
v 0.475765 0.221149 0.554900
v 0.539538 -0.518242 -0.332748
v 0.627200 0.390594 -0.462483
v -0.405963 -0.622666 -0.110879
v -0.287630 -0.504333 -0.022093
v -0.355572 -0.579367 0.323154
v -0.312138 -0.317241 0.520134
v -0.343031 -0.026853 0.536725
v -0.399878 0.183923 0.581622
v -0.314894 0.556851 0.216029
v -0.341341 0.592105 -0.069399
v -0.282831 0.553278 -0.356576
v -0.367097 0.200203 -0.468648
v -0.328443 -0.021569 -0.508132
v -0.377413 -0.371061 -0.362740
v 0.359931 -0.575734 -0.385894
v 0.176168 -0.530789 -0.482627
v -0.177287 -0.614066 -0.339555
v -0.062126 0.551024 -0.603829
v 0.162287 0.552163 -0.609889
v 0.353389 0.409793 -0.476549
v 0.655649 0.157733 -0.452155
v 0.783526 -0.010764 -0.546480
v 0.680673 -0.305023 -0.451768
v 0.649012 -0.506424 0.261619
v 0.645674 -0.564851 0.035654
v 0.551326 -0.611482 -0.132222
v 0.666289 0.418891 -0.266598
v 0.656193 0.392788 0.028876
v 0.567656 0.303500 0.342410
v 0.540886 0.048998 0.625400
v 0.629073 -0.127022 0.600903
v 0.548608 -0.409041 0.620211
v -0.099896 -0.573295 0.556854
v 0.057966 -0.690344 0.680193
v 0.385070 -0.572306 0.563453
v 0.433038 0.436404 0.486846
v 0.116132 0.453605 0.578903
v -0.194594 0.397865 0.603693
v -0.397040 -0.280736 0.247780
v -0.464065 -0.005064 0.274016
v -0.462774 0.271463 0.283535
v -0.511165 -0.370460 0.064225
v -0.529073 -0.045968 0.029644
v -0.488937 0.305386 -0.009124
v -0.431016 -0.318872 -0.225673
v -0.515557 -0.087005 -0.215226
v -0.491706 0.212437 -0.231272
v -0.184626 -0.397747 -0.475976
v -0.147224 -0.052568 -0.615135
v -0.181633 0.211551 -0.590956
v 0.086600 -0.414048 -0.520893
v 0.159971 -0.043683 -0.676956
v 0.144522 0.269355 -0.684767
v 0.457665 -0.319411 -0.571285
v 0.427222 -0.100158 -0.587844
v 0.471798 0.262187 -0.660814
v 0.714908 -0.409384 -0.158026
v 0.890862 -0.047771 -0.288667
v 0.840564 0.205126 -0.277080
v 0.720143 -0.440543 0.120255
v 0.886469 -0.072367 0.009937
v 0.808113 0.156104 0.045213
v 0.668555 -0.415987 0.386734
v 0.838822 -0.043247 0.273188
v 0.731895 0.135650 0.326793
v 0.342735 -0.439058 0.767930
v 0.411652 -0.137311 0.760310
v 0.459735 0.203010 0.639536
v 0.130971 -0.412428 0.769878
v 0.091340 -0.173355 0.856513
v 0.125171 0.185646 0.751928
v -0.195759 -0.457260 0.777541
v -0.217323 -0.179655 0.822392
v -0.146614 0.198988 0.702662
v -0.098245 -0.643795 -0.229598
v 0.139262 -0.700216 -0.228794
v 0.303713 -0.751538 -0.123689
v -0.080987 -0.655370 -0.008091
v 0.117748 -0.768499 0.059462
v 0.358197 -0.750021 0.088307
v -0.105740 -0.665466 0.305207
v 0.156660 -0.701404 0.315526
v 0.452377 -0.619876 0.265519
v 0.385081 0.561783 -0.294258
v 0.121044 0.663664 -0.354611
v -0.057873 0.713562 -0.421431
v 0.351765 0.546997 0.035160
v 0.186967 0.788824 -0.117643
v -0.209835 0.645930 0.001387
v 0.416222 0.554853 0.264261
v 0.088943 0.611488 0.320940
v -0.160959 0.625304 0.284066
vn -0.9075 -0.2548 0.3339
vn -0.9516 -0.0874 0.2947
vn -0.9948 -0.0360 0.0955
vn -0.9018 -0.1219 0.4147
vn -0.9363 0.2544 0.2422
vn -0.9515 0.3076 0.0075
vn -0.9116 -0.4101 0.0272
vn -0.9504 -0.0761 -0.3017
vn -0.9299 -0.2520 -0.2680
vn -0.9360 0.2042 -0.2866
vn -0.8597 -0.2081 0.4664
vn -0.9098 -0.1671 0.3799
vn -0.8813 -0.3659 0.2991
vn -0.8907 -0.0758 0.4482
vn -0.9486 -0.1398 0.2839
vn -0.6939 0.3331 0.6384
vn -0.6460 0.5924 0.4814
vn -0.6697 0.6991 0.2506
vn -0.8853 0.4611 -0.0599
vn -0.7592 0.4657 -0.4546
vn -0.7470 0.3414 -0.5704
vn -0.7436 0.1472 -0.6522
vn -0.6847 -0.0954 -0.7225
vn -0.7280 -0.2956 -0.6185
vn -0.9059 -0.2438 -0.3462
vn -0.8566 -0.4982 0.1346
vn -0.8614 -0.4781 0.1711
vn -0.3516 -0.3982 -0.8472
vn -0.3557 -0.1599 -0.9208
vn -0.0293 -0.1816 -0.9829
vn -0.0839 -0.4296 -0.8991
vn -0.4360 0.1131 -0.8928
vn -0.0913 0.0138 -0.9957
vn 0.2298 -0.1636 -0.9594
vn 0.2393 -0.4175 -0.8766
vn 0.3835 0.2676 -0.8839
vn -0.4701 -0.4591 -0.7539
vn -0.3530 -0.4823 -0.8017
vn -0.4590 0.3065 -0.8339
vn -0.1911 0.1390 -0.9717
vn 0.3832 0.5405 -0.7490
vn 0.3872 0.7271 -0.5670
vn 0.4384 0.6735 -0.5951
vn 0.5288 0.6048 -0.5955
vn 0.6262 0.3392 -0.7020
vn 0.3713 -0.0563 -0.9268
vn 0.6113 -0.4980 -0.6150
vn 0.2507 -0.7383 -0.6262
vn 0.5314 -0.6971 -0.4814
vn 0.0097 -0.6597 -0.7514
vn 0.8214 -0.5338 -0.2008
vn 0.8619 -0.4572 -0.2193
vn 0.9124 -0.4050 0.0597
vn 0.8775 -0.4727 0.0807
vn 0.9645 0.2493 0.0868
vn 0.8967 0.4290 0.1090
vn 0.8732 0.4501 0.1869
vn 0.9433 0.3026 0.1368
vn 0.9014 -0.3149 0.2972
vn 0.8291 -0.4339 0.3525
vn 0.7836 0.4532 0.4249
vn 0.8695 0.3473 0.3511
vn 0.5941 -0.7646 -0.2499
vn 0.8227 -0.4630 -0.3298
vn 0.7391 0.4406 -0.5095
vn 0.7538 0.3989 -0.5222
vn 0.7689 0.3492 -0.5356
vn 0.6374 0.7626 0.1102
vn 0.6764 0.7171 0.1680
vn 0.7384 0.5728 0.3560
vn 0.8228 0.4318 0.3696
vn 0.6722 0.3033 0.6753
vn 0.7521 0.0222 0.6586
vn 0.6740 -0.4193 0.6082
vn 0.6929 -0.6810 0.2369
vn 0.6204 -0.6977 0.3582
vn 0.7095 -0.7047 0.0036
vn 0.3812 -0.3947 0.8360
vn 0.4197 0.0584 0.9058
vn 0.0629 0.0377 0.9973
vn 0.0724 -0.3941 0.9162
vn 0.3276 0.3839 0.8633
vn 0.0880 0.4003 0.9122
vn -0.0203 -0.2488 0.9683
vn -0.1367 -0.4226 0.8959
vn -0.3463 0.3582 0.8670
vn -0.1318 0.3055 0.9430
vn 0.4284 -0.7975 0.4249
vn 0.8315 0.4399 0.3391
vn 0.9079 0.3403 0.2449
vn 0.2347 0.7257 0.6467
vn 0.0834 0.7091 0.7002
vn -0.3172 0.6112 0.7252
vn -0.8789 -0.0494 0.4744
vn -0.9294 -0.1235 0.3477
vn -0.5468 -0.8048 0.2310
vn -0.7721 -0.6197 0.1409
vn -0.6334 -0.6948 0.3407
vn -0.2690 -0.6056 0.7489
vn 0.2678 -0.5737 0.7740
vn -0.2009 -0.9213 -0.3330
vn -0.0841 -0.9255 -0.3694
vn -0.2330 -0.9715 -0.0440
vn -0.3749 -0.9227 -0.0897
vn 0.2060 -0.9412 -0.2676
vn -0.0374 -0.9908 -0.1298
vn -0.3443 -0.9334 0.1009
vn -0.4152 -0.9013 0.1240
vn 0.1848 -0.9146 0.3596
vn 0.3839 -0.9038 0.1890
vn 0.4314 -0.8625 0.2647
vn 0.2728 -0.9274 0.2559
vn -0.2488 -0.9261 -0.2836
vn -0.1756 -0.9134 -0.3672
vn 0.3412 -0.9250 0.1673
vn -0.3681 -0.9244 0.0994
vn -0.4554 -0.7248 0.5171
vn -0.4549 -0.8728 -0.1769
vn -0.2164 -0.8902 0.4008
vn 0.5154 0.8214 -0.2444
vn 0.4776 0.7873 -0.3899
vn 0.6148 0.7879 -0.0339
vn 0.5490 0.8289 0.1069
vn -0.1680 0.9799 -0.1074
vn -0.3064 0.9452 -0.1128
vn -0.3519 0.9328 0.0774
vn -0.1668 0.9852 0.0393
vn 0.0879 0.9091 0.4072
vn 0.5316 0.7927 0.2984
vn -0.2876 0.8818 0.3738
vn 0.2810 0.8448 -0.4553
vn 0.1786 0.8407 -0.5113
vn -0.6445 0.4985 -0.5798
vn -0.5100 0.8523 -0.1166
vn -0.4920 0.8703 -0.0215
vt 0.437500 0.062500
vt 0.500000 0.062500
vt 0.500000 0.125000
vt 0.437500 0.125000
vt 0.562500 0.062500
vt 0.562500 0.125000
vt 0.500000 0.187500
vt 0.437500 0.187500
vt 0.562500 0.187500
vt 0.375000 0.000000
vt 0.437500 0.000000
vt 0.375000 0.062500
vt 0.500000 0.000000
vt 0.562500 0.000000
vt 0.625000 0.000000
vt 0.625000 0.062500
vt 0.625000 0.125000
vt 0.625000 0.187500
vt 0.625000 0.250000
vt 0.562500 0.250000
vt 0.500000 0.250000
vt 0.437500 0.250000
vt 0.375000 0.187500
vt 0.375000 0.250000
vt 0.375000 0.125000
vt 0.437500 0.312500
vt 0.500000 0.312500
vt 0.500000 0.375000
vt 0.437500 0.375000
vt 0.562500 0.312500
vt 0.562500 0.375000
vt 0.500000 0.437500
vt 0.437500 0.437500
vt 0.562500 0.437500
vt 0.375000 0.312500
vt 0.625000 0.312500
vt 0.625000 0.375000
vt 0.625000 0.437500
vt 0.625000 0.500000
vt 0.562500 0.500000
vt 0.500000 0.500000
vt 0.437500 0.500000
vt 0.375000 0.437500
vt 0.375000 0.500000
vt 0.375000 0.375000
vt 0.437500 0.562500
vt 0.500000 0.562500
vt 0.500000 0.625000
vt 0.437500 0.625000
vt 0.562500 0.562500
vt 0.562500 0.625000
vt 0.500000 0.687500
vt 0.437500 0.687500
vt 0.562500 0.687500
vt 0.375000 0.562500
vt 0.625000 0.562500
vt 0.625000 0.625000
vt 0.625000 0.687500
vt 0.625000 0.750000
vt 0.562500 0.750000
vt 0.500000 0.750000
vt 0.437500 0.750000
vt 0.375000 0.687500
vt 0.375000 0.750000
vt 0.375000 0.625000
vt 0.437500 0.812500
vt 0.500000 0.812500
vt 0.500000 0.875000
vt 0.437500 0.875000
vt 0.562500 0.812500
vt 0.562500 0.875000
vt 0.500000 0.937500
vt 0.437500 0.937500
vt 0.562500 0.937500
vt 0.375000 0.812500
vt 0.625000 0.812500
vt 0.625000 0.875000
vt 0.625000 0.937500
vt 0.625000 1.000000
vt 0.562500 1.000000
vt 0.500000 1.000000
vt 0.437500 1.000000
vt 0.375000 0.937500
vt 0.375000 1.000000
vt 0.375000 0.875000
vt 0.187500 0.562500
vt 0.250000 0.562500
vt 0.250000 0.625000
vt 0.187500 0.625000
vt 0.312500 0.562500
vt 0.312500 0.625000
vt 0.250000 0.687500
vt 0.187500 0.687500
vt 0.312500 0.687500
vt 0.125000 0.500000
vt 0.187500 0.500000
vt 0.125000 0.562500
vt 0.250000 0.500000
vt 0.312500 0.500000
vt 0.312500 0.750000
vt 0.250000 0.750000
vt 0.187500 0.750000
vt 0.125000 0.687500
vt 0.125000 0.750000
vt 0.125000 0.625000
vt 0.687500 0.562500
vt 0.750000 0.562500
vt 0.750000 0.625000
vt 0.687500 0.625000
vt 0.812500 0.562500
vt 0.812500 0.625000
vt 0.750000 0.687500
vt 0.687500 0.687500
vt 0.812500 0.687500
vt 0.687500 0.500000
vt 0.750000 0.500000
vt 0.812500 0.500000
vt 0.875000 0.500000
vt 0.875000 0.562500
vt 0.875000 0.625000
vt 0.875000 0.687500
vt 0.875000 0.750000
vt 0.812500 0.750000
vt 0.750000 0.750000
vt 0.687500 0.750000
s 1
f 45/1/1 46/2/2 49/3/3 48/4/4
f 46/2/2 47/5/5 50/6/6 49/3/3
f 48/4/7 49/3/3 52/7/8 51/8/9
f 49/3/3 50/6/6 53/9/10 52/7/8
f 1/10/11 12/11/12 45/1/1 11/12/13
f 12/11/12 13/13/14 46/2/2 45/1/1
f 13/13/14 14/14/15 47/5/5 46/2/2
f 14/14/16 2/15/17 15/16/18 47/5/5
f 47/5/5 15/16/18 16/17/19 50/6/6
f 50/6/6 16/17/19 17/18/20 53/9/10
f 53/9/10 17/18/20 4/19/21 18/20/22
f 52/7/8 53/9/10 18/20/22 19/21/23
f 51/8/9 52/7/8 19/21/23 20/22/24
f 9/23/25 51/8/9 20/22/24 3/24/25
f 10/25/26 48/4/7 51/8/9 9/23/27
f 11/12/13 45/1/1 48/4/7 10/25/26
f 54/26/28 55/27/29 58/28/30 57/29/31
f 55/27/29 56/30/32 59/31/33 58/28/30
f 57/29/31 58/28/30 61/32/34 60/33/35
f 58/28/30 59/31/33 62/34/36 61/32/34
f 3/24/37 20/22/24 54/26/28 23/35/38
f 20/22/24 19/21/23 55/27/29 54/26/28
f 19/21/23 18/20/22 56/30/32 55/27/29
f 18/20/22 4/19/21 24/36/39 56/30/32
f 56/30/32 24/36/39 25/37/40 59/31/33
f 59/31/41 25/37/42 26/38/43 62/34/36
f 62/34/36 26/38/43 8/39/44 27/40/45
f 61/32/34 62/34/36 27/40/45 28/41/46
f 60/33/35 61/32/34 28/41/46 29/42/47
f 21/43/48 60/33/35 29/42/47 7/44/49
f 22/45/50 57/29/31 60/33/35 21/43/48
f 23/35/38 54/26/28 57/29/31 22/45/50
f 63/46/51 64/47/52 67/48/53 66/49/54
f 64/47/55 65/50/56 68/51/57 67/48/58
f 66/49/54 67/48/53 70/52/59 69/53/60
f 67/48/58 68/51/57 71/54/61 70/52/62
f 7/44/49 29/42/47 63/46/51 32/55/63
f 29/42/47 28/41/64 64/47/52 63/46/51
f 28/41/65 27/40/45 65/50/66 64/47/65
f 27/40/45 8/39/44 33/56/67 65/50/66
f 65/50/56 33/56/68 34/57/69 68/51/57
f 68/51/57 34/57/69 35/58/70 71/54/61
f 71/54/61 35/58/70 6/59/71 36/60/72
f 70/52/62 71/54/61 36/60/72 37/61/73
f 69/53/60 70/52/59 37/61/73 38/62/74
f 30/63/75 69/53/60 38/62/74 5/64/76
f 31/65/77 66/49/54 69/53/60 30/63/75
f 32/55/63 63/46/51 66/49/54 31/65/77
f 72/66/78 73/67/79 76/68/80 75/69/81
f 73/67/79 74/70/82 77/71/83 76/68/80
f 75/69/81 76/68/80 79/72/84 78/73/85
f 76/68/80 77/71/83 80/74/86 79/72/87
f 5/64/76 38/62/74 72/66/78 41/75/88
f 38/62/74 37/61/73 73/67/79 72/66/78
f 37/61/73 36/60/72 74/70/82 73/67/79
f 36/60/72 6/59/71 42/76/89 74/70/90
f 74/70/82 42/76/91 43/77/92 77/71/83
f 77/71/83 43/77/92 44/78/93 80/74/86
f 80/74/86 44/78/93 2/79/17 14/80/16
f 79/72/94 80/74/86 14/80/16 13/81/14
f 78/73/95 79/72/94 13/81/14 12/82/12
f 39/83/96 78/73/97 12/82/97 1/84/98
f 40/85/99 75/69/81 78/73/85 39/83/99
f 41/75/88 72/66/78 75/69/81 40/85/100
f 81/86/101 82/87/102 85/88/103 84/89/104
f 82/87/102 83/90/105 86/91/106 85/88/103
f 84/89/104 85/88/103 88/92/107 87/93/108
f 85/88/109 86/91/110 89/94/111 88/92/112
f 3/95/113 23/96/114 81/86/101 9/97/113
f 23/96/114 22/98/50 82/87/102 81/86/101
f 22/98/50 21/99/48 83/90/105 82/87/102
f 21/99/48 7/44/49 32/55/63 83/90/105
f 83/90/105 32/55/63 31/65/77 86/91/110
f 86/91/110 31/65/77 30/63/75 89/94/111
f 89/94/111 30/63/75 5/64/76 41/100/88
f 88/92/112 89/94/111 41/100/88 40/101/115
f 87/93/108 88/92/107 40/101/116 39/102/96
f 11/103/117 87/93/108 39/102/96 1/104/98
f 10/105/118 84/89/104 87/93/108 11/103/118
f 9/97/119 81/86/119 84/89/119 10/105/119
f 90/106/120 91/107/121 94/108/122 93/109/123
f 91/107/124 92/110/125 95/111/126 94/108/127
f 93/109/123 94/108/122 97/112/128 96/113/129
f 94/108/127 95/111/126 98/114/130 97/112/128
f 8/39/44 26/115/43 90/106/120 33/56/131
f 26/115/43 25/116/42 91/107/121 90/106/120
f 25/116/42 24/117/132 92/110/132 91/107/121
f 24/117/39 4/118/21 17/119/20 92/110/133
f 92/110/125 17/119/134 16/120/135 95/111/126
f 95/111/126 16/120/135 15/121/18 98/114/130
f 98/114/130 15/121/18 2/122/17 44/123/93
f 97/112/128 98/114/130 44/123/93 43/124/92
f 96/113/129 97/112/128 43/124/92 42/125/91
f 35/58/70 96/113/129 42/125/89 6/59/71
f 34/57/69 93/109/123 96/113/129 35/58/70
f 33/56/68 90/106/120 93/109/123 34/57/69
