# Blender 4.0.2
# www.blender.org
mtllib display shelf Middle.mtl
o Cube
v -0.750000 0.000000 1.000000
v -0.750000 0.150000 1.000000
v -0.750000 0.000000 -1.000000
v -0.750000 0.150000 -1.000000
v 0.750000 0.000000 1.000000
v 0.750000 0.150000 1.000000
v 0.750000 0.000000 -1.000000
v 0.750000 0.150000 -1.000000
v -0.750000 0.200000 1.000000
v -0.750000 0.200000 -1.000000
v 0.750000 0.200000 -1.000000
v 0.750000 0.200000 1.000000
v 0.850000 0.150000 -1.000000
v 0.850000 0.150000 1.000000
v 0.850000 0.200000 -1.000000
v 0.850000 0.200000 1.000000
v -0.850000 0.150000 1.000000
v -0.850000 0.150000 -1.000000
v -0.850000 0.200000 1.000000
v -0.850000 0.200000 -1.000000
v 0.000000 0.000000 -1.000000
v 0.000000 0.150000 -1.000000
v 0.000000 0.000000 1.000000
v 0.000000 0.150000 1.000000
v 0.000000 0.200000 -1.000000
v 0.000000 0.200000 1.000000
v -0.100000 0.000000 -1.000000
v -0.100000 0.150000 1.000000
v -0.100000 0.200000 1.000000
v -0.100000 0.150000 -1.000000
v -0.100000 0.000000 1.000000
v -0.100000 0.200000 -1.000000
v 0.100000 0.150000 -1.000000
v 0.100000 0.000000 1.000000
v 0.100000 0.200000 -1.000000
v 0.100000 0.000000 -1.000000
v 0.100000 0.150000 1.000000
v 0.100000 0.200000 1.000000
v -0.100000 2.250000 -1.000000
v 0.000000 2.250000 -1.000000
v 0.100000 2.250000 1.000000
v 0.000000 2.250000 1.000000
v -0.100000 2.250000 1.000000
v 0.100000 2.250000 -1.000000
v -0.700000 0.570093 0.994891
v -0.700000 0.629907 0.994891
v -0.700000 0.570093 -0.994891
v -0.700000 0.629907 -0.994891
v 0.700000 0.570093 0.994891
v 0.700000 0.629907 0.994891
v 0.700000 0.570093 -0.994891
v 0.700000 0.629907 -0.994891
v 0.750000 0.629907 -0.994891
v 0.750000 0.570093 -0.994891
v 0.750000 0.570093 0.994891
v 0.750000 0.629907 0.994891
v -0.750000 0.570093 -0.994891
v -0.750000 0.570093 0.994891
v -0.750000 0.629907 0.994891
v -0.750000 0.629907 -0.994891
v -0.700000 0.640392 0.994891
v -0.700000 0.640392 -0.994891
v 0.700000 0.640392 -0.994891
v 0.700000 0.640392 0.994891
v 0.750000 0.640392 -0.994891
v 0.750000 0.640392 0.994891
v -0.750000 0.640392 0.994891
v -0.750000 0.640392 -0.994891
v 0.000000 0.570093 -0.994891
v 0.000000 0.629907 -0.994891
v 0.000000 0.570093 0.994891
v 0.000000 0.629907 0.994891
v -0.700000 1.120093 0.994891
v -0.700000 1.179907 0.994891
v -0.700000 1.120093 -0.994891
v -0.700000 1.179907 -0.994891
v 0.700000 1.120093 0.994891
v 0.700000 1.179907 0.994891
v 0.700000 1.120093 -0.994891
v 0.700000 1.179907 -0.994891
v 0.750000 1.179907 -0.994891
v 0.750000 1.120093 -0.994891
v 0.750000 1.120093 0.994891
v 0.750000 1.179907 0.994891
v -0.750000 1.120093 -0.994891
v -0.750000 1.120093 0.994891
v -0.750000 1.179907 0.994891
v -0.750000 1.179907 -0.994891
v -0.700000 1.190392 0.994891
v -0.700000 1.190392 -0.994891
v 0.700000 1.190392 -0.994891
v 0.700000 1.190392 0.994891
v 0.750000 1.190392 -0.994891
v 0.750000 1.190392 0.994891
v -0.750000 1.190392 0.994891
v -0.750000 1.190392 -0.994891
v 0.000000 1.120093 -0.994891
v 0.000000 1.179907 -0.994891
v 0.000000 1.120093 0.994891
v 0.000000 1.179907 0.994891
v -0.700000 1.720093 0.994891
v -0.700000 1.779907 0.994891
v -0.700000 1.720093 -0.994891
v -0.700000 1.779907 -0.994891
v 0.700000 1.720093 0.994891
v 0.700000 1.779907 0.994891
v 0.700000 1.720093 -0.994891
v 0.700000 1.779907 -0.994891
v 0.750000 1.779907 -0.994891
v 0.750000 1.720093 -0.994891
v 0.750000 1.720093 0.994891
v 0.750000 1.779907 0.994891
v -0.750000 1.720093 -0.994891
v -0.750000 1.720093 0.994891
v -0.750000 1.779907 0.994891
v -0.750000 1.779907 -0.994891
v -0.700000 1.790392 0.994891
v -0.700000 1.790392 -0.994891
v 0.700000 1.790392 -0.994891
v 0.700000 1.790392 0.994891
v 0.750000 1.790392 -0.994891
v 0.750000 1.790392 0.994891
v -0.750000 1.790392 0.994891
v -0.750000 1.790392 -0.994891
v 0.000000 1.720093 -0.994891
v 0.000000 1.779907 -0.994891
v 0.000000 1.720093 0.994891
v 0.000000 1.779907 0.994891
vn -1.0000 -0.0000 -0.0000
vn -0.0000 -0.0000 -1.0000
vn 1.0000 -0.0000 -0.0000
vn -0.0000 -0.0000 1.0000
vn -0.0000 -1.0000 -0.0000
vn -0.0000 1.0000 -0.0000
vt 0.568134 0.894810
vt 0.546829 0.894810
vt 0.546829 0.610744
vt 0.568134 0.610744
vt 0.134932 0.319575
vt 0.134932 0.298270
vt 0.227253 0.298270
vt 0.227253 0.319575
vt 0.909014 0.886258
vt 0.887709 0.886258
vt 0.887709 0.602191
vt 0.909014 0.602191
vt 0.376388 0.319575
vt 0.376388 0.298270
vt 0.468710 0.298270
vt 0.468710 0.319575
vt 0.575235 0.284067
vt 0.482913 0.284067
vt 0.482913 0.000000
vt 0.575235 0.000000
vt 0.106525 0.298270
vt 0.014203 0.298270
vt 0.014203 0.291169
vt 0.106525 0.291169
vt 0.887709 0.886257
vt 0.795387 0.886257
vt 0.795387 0.602191
vt 0.887709 0.602191
vt 0.255660 0.291169
vt 0.255660 0.298270
vt 0.241457 0.298270
vt 0.241457 0.291169
vt 0.000000 0.298270
vt 0.000000 0.291169
vt 0.347982 0.298270
vt 0.347982 0.291169
vt 0.916116 0.602191
vt 0.916116 0.886258
vt 0.909014 0.886258
vt 0.909014 0.602191
vt 0.504219 0.894810
vt 0.504219 0.610744
vt 0.518422 0.610744
vt 0.518422 0.894810
vt 0.909014 0.000000
vt 0.909014 0.284067
vt 0.894810 0.284067
vt 0.894810 0.000000
vt 0.227253 0.291169
vt 0.923217 0.602191
vt 0.923217 0.886258
vt 0.781184 0.886257
vt 0.781184 0.602191
vt 0.468710 0.291169
vt 0.482913 0.291169
vt 0.482913 0.298270
vt 0.923217 0.000000
vt 0.923217 0.284067
vt 0.362185 0.298270
vt 0.362185 0.291169
vt 0.376388 0.291169
vt 0.120728 0.291169
vt 0.106525 0.000000
vt 0.120728 0.000000
vt 0.120728 0.298270
vt 0.134932 0.291169
vt 0.603642 0.284067
vt 0.589439 0.284067
vt 0.589439 0.000000
vt 0.603642 0.000000
vt 0.347982 0.319575
vt 0.362185 0.319575
vt 0.106525 0.319575
vt 0.120728 0.319575
vt 0.014203 0.319575
vt 0.695964 0.284067
vt 0.695964 0.000000
vt 0.134932 0.000000
vt 0.255660 0.319575
vt 0.411897 0.894810
vt 0.411897 0.610744
vt 0.532625 0.894810
vt 0.532625 0.610744
vt 0.347982 0.000000
vt 0.362185 0.000000
vt 0.376388 0.000000
vt 0.284067 0.610744
vt 0.000000 0.610744
vt 0.000000 0.319575
vt 0.284067 0.319575
vt 0.568134 0.610744
vt 0.568134 0.319575
vt 0.975966 0.000000
vt 0.975966 0.282616
vt 0.974477 0.282616
vt 0.974477 0.000000
vt 0.988929 0.106525
vt 0.980433 0.106525
vt 0.980433 0.007102
vt 0.988929 0.007102
vt 0.980433 0.808139
vt 0.988929 0.808139
vt 0.988929 0.815241
vt 0.980433 0.815241
vt 0.988929 0.708716
vt 0.980433 0.708716
vt 0.980433 0.609292
vt 0.988929 0.609292
vt 0.674659 0.602191
vt 0.575235 0.602191
vt 0.575235 0.319575
vt 0.674659 0.319575
vt 0.312473 0.893359
vt 0.213050 0.893359
vt 0.213050 0.610744
vt 0.312473 0.610744
vt 0.933202 0.282616
vt 0.924706 0.282616
vt 0.924706 0.000000
vt 0.933202 0.000000
vt 0.568134 0.602191
vt 0.568134 0.319575
vt 0.980433 0.205948
vt 0.980433 0.213050
vt 0.978944 0.213050
vt 0.978944 0.205948
vt 0.980433 0.000000
vt 0.988929 0.000000
vt 0.933202 0.884806
vt 0.924706 0.884806
vt 0.924706 0.602191
vt 0.933202 0.602191
vt 0.774082 0.602191
vt 0.774082 0.319575
vt 0.781184 0.319575
vt 0.988929 0.205948
vt 0.988929 0.213050
vt 0.980433 0.602191
vt 0.988929 0.602191
vt 0.960273 0.000000
vt 0.960273 0.282616
vt 0.953171 0.282616
vt 0.953171 0.000000
vt 0.953172 0.884806
vt 0.953172 0.602191
vt 0.960273 0.602191
vt 0.960273 0.884806
vt 0.923217 0.884806
vt 0.978944 0.609292
vt 0.978944 0.602191
vt 0.923217 0.282616
vt 0.923217 0.000000
vt 0.978944 0.007102
vt 0.978944 0.000000
vt 0.975966 0.602191
vt 0.975966 0.884806
vt 0.974477 0.884806
vt 0.974477 0.602191
vt 0.978944 0.815241
vt 0.978944 0.808139
vt 0.411897 0.893359
vt 0.411897 0.610744
vt 0.977455 -0.000000
vt 0.977455 0.282616
vt 0.975966 0.282616
vt 0.975966 -0.000000
vt 0.990015 0.426100
vt 0.981520 0.426100
vt 0.981520 0.326677
vt 0.990015 0.326677
vt 0.990418 0.205948
vt 0.998914 0.205948
vt 0.998914 0.213050
vt 0.990418 0.213050
vt 0.998914 0.106525
vt 0.990418 0.106525
vt 0.990418 0.007102
vt 0.998914 0.007102
vt 0.674659 0.884806
vt 0.575235 0.884806
vt 0.575235 0.602191
vt 0.674659 0.602191
vt 0.795387 0.282616
vt 0.695964 0.282616
vt 0.695964 0.000000
vt 0.795387 0.000000
vt 0.943187 0.282616
vt 0.934691 0.282616
vt 0.934691 0.000000
vt 0.943187 0.000000
vt 0.568134 0.884806
vt 0.568134 0.602191
vt 0.981520 0.525524
vt 0.981520 0.532625
vt 0.980031 0.532625
vt 0.980031 0.525524
vt 0.981520 0.319575
vt 0.990015 0.319575
vt 0.943187 0.884806
vt 0.934691 0.884806
vt 0.934691 0.602191
vt 0.943187 0.602191
vt 0.774082 0.884806
vt 0.774082 0.602191
vt 0.781184 0.602191
vt 0.781184 0.884806
vt 0.990015 0.525524
vt 0.990015 0.532625
vt 0.990418 -0.000000
vt 0.998914 -0.000000
vt 0.967375 0.000000
vt 0.967375 0.282616
vt 0.960273 0.282616
vt 0.960273 0.000000
vt 0.967375 0.602191
vt 0.967375 0.884806
vt 0.933202 0.884806
vt 0.933202 0.602191
vt 0.988929 0.007102
vt 0.988929 -0.000000
vt 0.933202 0.282616
vt 0.933202 0.000000
vt 0.980031 0.326677
vt 0.980031 0.319575
vt 0.977455 0.602191
vt 0.977455 0.884806
vt 0.988929 0.213050
vt 0.894810 0.282616
vt 0.894810 0.000000
vt 0.978944 -0.000000
vt 0.978944 0.282616
vt 0.977455 0.282616
vt 0.977455 -0.000000
vt 0.998914 0.708716
vt 0.990418 0.708716
vt 0.990418 0.609292
vt 0.998914 0.609292
vt 0.991504 0.525524
vt 1.000000 0.525524
vt 1.000000 0.532625
vt 0.991504 0.532625
vt 1.000000 0.426100
vt 0.991504 0.426100
vt 0.991504 0.326677
vt 1.000000 0.326677
vt 0.106525 0.893359
vt 0.007102 0.893359
vt 0.007102 0.610744
vt 0.106525 0.610744
vt 0.880607 0.602191
vt 0.781184 0.602191
vt 0.781184 0.319575
vt 0.880607 0.319575
vt 0.944676 0.282616
vt 0.944676 0.000000
vt 0.953171 0.000000
vt 0.000000 0.893359
vt 0.000000 0.610744
vt 0.990418 0.808139
vt 0.990418 0.815241
vt 0.988929 0.815241
vt 0.988929 0.808139
vt 0.990418 0.602191
vt 0.998914 0.602191
vt 0.953172 0.884806
vt 0.944676 0.884806
vt 0.944676 0.602191
vt 0.953172 0.602191
vt 0.205948 0.893359
vt 0.205948 0.610744
vt 0.213050 0.610744
vt 0.213050 0.893359
vt 0.998914 0.808139
vt 0.998914 0.815241
vt 0.991504 0.319575
vt 1.000000 0.319575
vt 0.974477 0.000000
vt 0.974477 0.602191
vt 0.974477 0.884806
vt 0.943187 0.602191
vt 0.990015 0.326677
vt 0.990015 0.319575
vt 0.943187 0.282616
vt 0.943187 0.000000
vt 0.978944 0.602191
vt 0.978944 0.884806
vt 0.977455 0.884806
vt 0.977455 0.602191
vt 0.990015 0.532625
vt 0.990015 0.525524
vt 0.980030 0.602191
vt 0.980030 0.319575
s 1
f 1/1/1 2/2/1 4/3/1 3/4/1
f 36/5/2 33/6/2 8/7/2 7/8/2
f 7/9/3 8/10/3 6/11/3 5/12/3
f 31/13/4 28/14/4 2/15/4 1/16/4
f 36/17/5 7/18/5 5/19/5 34/20/5
f 30/21/2 4/22/2 10/23/2 32/24/2
f 32/25/6 10/26/6 9/27/6 29/28/6
f 12/29/4 6/30/4 14/31/4 16/32/4
f 10/23/2 4/22/2 18/33/2 20/34/2
f 37/35/4 6/30/4 12/29/4 38/36/4
f 14/37/3 13/38/3 15/39/3 16/40/3
f 11/41/6 12/42/6 16/43/6 15/44/6
f 6/45/5 8/46/5 13/47/5 14/48/5
f 8/7/2 11/49/2 15/32/2 13/31/2
f 18/50/1 17/51/1 19/38/1 20/37/1
f 9/27/6 10/26/6 20/52/6 19/53/6
f 2/15/4 9/54/4 19/55/4 17/56/4
f 4/46/5 2/45/5 17/57/5 18/58/5
f 28/14/4 24/59/4 26/60/4 29/61/4
f 25/62/2 32/24/2 39/63/2 40/64/2
f 33/6/2 22/65/2 25/62/2 35/66/2
f 27/67/5 21/68/5 23/69/5 31/70/5
f 34/71/4 37/35/4 24/59/4 23/72/4
f 27/73/2 30/21/2 22/65/2 21/74/2
f 3/75/2 4/22/2 30/21/2 27/73/2
f 3/76/5 27/67/5 31/70/5 1/77/5
f 2/15/4 28/14/4 29/61/4 9/54/4
f 35/66/2 25/62/2 40/64/2 44/78/2
f 22/65/2 30/21/2 32/24/2 25/62/2
f 23/72/4 24/59/4 28/14/4 31/13/4
f 5/79/4 6/30/4 37/35/4 34/71/4
f 8/7/2 33/6/2 35/66/2 11/49/2
f 11/41/6 35/80/6 38/81/6 12/42/6
f 24/59/4 37/35/4 38/36/4 26/60/4
f 21/68/5 36/17/5 34/20/5 23/69/5
f 21/74/2 22/65/2 33/6/2 36/5/2
f 44/2/6 40/82/6 42/83/6 41/3/6
f 40/82/6 39/44/6 43/43/6 42/83/6
f 26/60/4 38/36/4 41/84/4 42/85/4
f 29/61/4 26/60/4 42/85/4 43/86/4
f 38/87/3 35/88/3 44/89/3 41/90/3
f 32/91/1 29/87/1 43/90/1 39/92/1
f 46/93/3 48/94/3 62/95/3 61/96/3
f 69/97/2 70/98/2 52/99/2 51/100/2
f 50/101/4 49/102/4 55/103/4 56/104/4
f 71/105/4 72/106/4 46/107/4 45/108/4
f 69/109/5 51/110/5 49/111/5 71/112/5
f 70/113/6 48/114/6 46/115/6 72/116/6
f 54/117/3 53/118/3 56/119/3 55/120/3
f 49/111/5 51/110/5 54/121/5 55/122/5
f 48/123/2 60/124/2 68/125/2 62/126/2
f 51/100/2 52/99/2 53/127/2 54/128/2
f 58/129/1 59/130/1 60/131/1 57/132/1
f 47/133/5 45/134/5 58/135/5 57/53/5
f 48/123/2 47/136/2 57/137/2 60/124/2
f 45/108/4 46/107/4 59/138/4 58/139/4
f 61/140/6 62/141/6 68/142/6 67/143/6
f 63/144/6 64/145/6 66/146/6 65/147/6
f 60/131/1 59/130/1 67/148/1 68/50/1
f 59/138/4 46/107/4 61/149/4 67/150/4
f 56/119/3 53/118/3 65/151/3 66/152/3
f 53/127/2 52/99/2 63/153/2 65/154/2
f 52/155/1 50/156/1 64/157/1 63/158/1
f 50/101/4 56/104/4 66/159/4 64/160/4
f 52/161/6 70/113/6 72/116/6 50/162/6
f 47/133/5 69/109/5 71/112/5 45/134/5
f 49/102/4 50/101/4 72/106/4 71/105/4
f 47/136/2 48/123/2 70/98/2 69/97/2
f 74/163/3 76/164/3 90/165/3 89/166/3
f 97/167/2 98/168/2 80/169/2 79/170/2
f 78/171/4 77/172/4 83/173/4 84/174/4
f 99/175/4 100/176/4 74/177/4 73/178/4
f 97/179/5 79/180/5 77/181/5 99/182/5
f 98/183/6 76/184/6 74/185/6 100/186/6
f 82/187/3 81/188/3 84/189/3 83/190/3
f 77/181/5 79/180/5 82/191/5 83/192/5
f 76/193/2 88/194/2 96/195/2 90/196/2
f 79/170/2 80/169/2 81/197/2 82/198/2
f 86/199/1 87/200/1 88/201/1 85/202/1
f 75/203/5 73/204/5 86/205/5 85/206/5
f 76/193/2 75/207/2 85/208/2 88/194/2
f 73/178/4 74/177/4 87/209/4 86/210/4
f 89/211/6 90/212/6 96/213/6 95/214/6
f 91/147/6 92/146/6 94/215/6 93/216/6
f 88/201/1 87/200/1 95/217/1 96/218/1
f 87/209/4 74/177/4 89/219/4 95/220/4
f 84/189/3 81/188/3 93/221/3 94/222/3
f 81/197/2 80/169/2 91/223/2 93/224/2
f 80/225/1 78/226/1 92/156/1 91/155/1
f 78/171/4 84/174/4 94/227/4 92/136/4
f 80/228/6 98/183/6 100/186/6 78/229/6
f 75/203/5 97/179/5 99/182/5 73/204/5
f 77/172/4 78/171/4 100/176/4 99/175/4
f 75/207/2 76/193/2 98/168/2 97/167/2
f 102/230/3 104/231/3 118/232/3 117/233/3
f 125/234/2 126/235/2 108/236/2 107/237/2
f 106/238/4 105/239/4 111/240/4 112/241/4
f 127/242/4 128/243/4 102/244/4 101/245/4
f 125/246/5 107/247/5 105/248/5 127/249/5
f 126/250/6 104/251/6 102/252/6 128/253/6
f 110/142/3 109/254/3 112/255/3 111/256/3
f 105/248/5 107/247/5 110/257/5 111/258/5
f 104/259/2 116/260/2 124/261/2 118/262/2
f 107/237/2 108/236/2 109/263/2 110/264/2
f 114/265/1 115/266/1 116/267/1 113/268/1
f 103/269/5 101/270/5 114/271/5 113/272/5
f 104/259/2 103/273/2 113/274/2 116/260/2
f 101/245/4 102/244/4 115/275/4 114/276/4
f 117/277/6 118/95/6 124/212/6 123/211/6
f 119/216/6 120/215/6 122/278/6 121/279/6
f 116/267/1 115/266/1 123/199/1 124/280/1
f 115/275/4 102/244/4 117/281/4 123/282/4
f 112/255/3 109/254/3 121/283/3 122/284/3
f 109/263/2 108/236/2 119/108/2 121/139/2
f 108/285/1 106/286/1 120/287/1 119/288/1
f 106/238/4 112/241/4 122/289/4 120/290/4
f 108/291/6 126/250/6 128/253/6 106/292/6
f 103/269/5 125/246/5 127/249/5 101/270/5
f 105/239/4 106/238/4 128/243/4 127/242/4
f 103/273/2 104/259/2 126/235/2 125/234/2
